<svg width="64" height="64" viewBox="0 0 64 64" fill="none" xmlns="http://www.w3.org/2000/svg">
<mask id="mask0_61_89" style="mask-type:alpha" maskUnits="userSpaceOnUse" x="0" y="0" width="64" height="64">
<rect width="64" height="64" fill="#B62D30"/>
</mask>
<g mask="url(#mask0_61_89)">
<path d="M32 55.3333C31.3111 55.3333 30.7222 55.0889 30.2333 54.6C29.7444 54.1111 29.5 53.5222 29.5 52.8333C29.5 52.1444 29.7444 51.5555 30.2333 51.0666C30.7222 50.5777 31.3111 50.3333 32 50.3333H50.3667V31.7333C50.3667 26.6444 48.5778 22.3166 45 18.75C41.4222 15.1833 37.0889 13.4 32 13.4C26.8889 13.4 22.5444 15.1833 18.9667 18.75C15.3889 22.3166 13.6 26.6444 13.6 31.7333V45.0333C13.6 45.7222 13.3556 46.3111 12.8667 46.8C12.3778 47.2888 11.7889 47.5333 11.1 47.5333C9.7 47.5333 8.5 47.0333 7.5 46.0333C6.5 45.0333 6 43.8333 6 42.4333V37.2C6 36.2888 6.23333 35.4444 6.7 34.6666C7.16667 33.8888 7.8 33.2555 8.6 32.7666L8.8 29.3C9.17778 26.3666 10.05 23.6444 11.4167 21.1333C12.7833 18.6222 14.4944 16.4388 16.55 14.5833C18.6056 12.7277 20.9611 11.2777 23.6167 10.2333C26.2722 9.18885 29.0667 8.66663 32 8.66663C34.9333 8.66663 37.7167 9.18885 40.35 10.2333C42.9833 11.2777 45.3333 12.7166 47.4 14.55C49.4667 16.3833 51.1778 18.55 52.5333 21.05C53.8889 23.55 54.7667 26.2666 55.1667 29.2L55.3667 32.6666C56.1667 33.0444 56.8056 33.6111 57.2833 34.3666C57.7611 35.1222 58 35.9444 58 36.8333V42.8C58 43.6888 57.7611 44.5111 57.2833 45.2666C56.8056 46.0222 56.1667 46.5888 55.3667 46.9666V50.3333C55.3667 51.7111 54.8778 52.8889 53.9 53.8666C52.9222 54.8444 51.7444 55.3333 50.3667 55.3333H32ZM24.1667 37.1C23.4778 37.1 22.8889 36.8555 22.4 36.3666C21.9111 35.8777 21.6667 35.2888 21.6667 34.6C21.6667 33.9111 21.9111 33.3222 22.4 32.8333C22.8889 32.3444 23.4778 32.1 24.1667 32.1C24.8556 32.1 25.4444 32.3444 25.9333 32.8333C26.4222 33.3222 26.6667 33.9111 26.6667 34.6C26.6667 35.2888 26.4222 35.8777 25.9333 36.3666C25.4444 36.8555 24.8556 37.1 24.1667 37.1ZM39.8333 37.1C39.1444 37.1 38.5556 36.8555 38.0667 36.3666C37.5778 35.8777 37.3333 35.2888 37.3333 34.6C37.3333 33.9111 37.5778 33.3222 38.0667 32.8333C38.5556 32.3444 39.1444 32.1 39.8333 32.1C40.5222 32.1 41.1111 32.3444 41.6 32.8333C42.0889 33.3222 42.3333 33.9111 42.3333 34.6C42.3333 35.2888 42.0889 35.8777 41.6 36.3666C41.1111 36.8555 40.5222 37.1 39.8333 37.1ZM16.5 33.0333C16.3 28.5 17.7222 24.6055 20.7667 21.35C23.8111 18.0944 27.5889 16.4666 32.1 16.4666C35.9222 16.4666 39.2889 17.6777 42.2 20.1C45.1111 22.5222 46.8889 25.6111 47.5333 29.3666C43.5778 29.3 39.9278 28.2444 36.5833 26.2C33.2389 24.1555 30.6889 21.3555 28.9333 17.8C28.2444 21.2444 26.8056 24.3055 24.6167 26.9833C22.4278 29.6611 19.7222 31.6777 16.5 33.0333Z" fill="#B62D30"/>
</g>
</svg>
