<svg width="64" height="64" viewBox="0 0 64 64" fill="none" xmlns="http://www.w3.org/2000/svg">
<mask id="mask0_61_92" style="mask-type:alpha" maskUnits="userSpaceOnUse" x="0" y="0" width="64" height="64">
<rect width="64" height="64" fill="#B62D30"/>
</mask>
<g mask="url(#mask0_61_92)">
<path d="M15.2003 27.8667C14.6448 27.6444 14.1226 27.3944 13.6337 27.1167C13.1448 26.8389 12.667 26.5111 12.2003 26.1333L10.3337 26.7333C9.80034 26.9111 9.27812 26.9 8.76701 26.7C8.2559 26.5 7.8559 26.1667 7.56701 25.7L7.03367 24.8C6.76701 24.3111 6.66701 23.7889 6.73367 23.2333C6.80034 22.6778 7.04479 22.2111 7.46701 21.8333L8.93367 20.4667C8.84479 19.9111 8.80034 19.3556 8.80034 18.8C8.80034 18.2444 8.84479 17.6889 8.93367 17.1333L7.46701 15.7667C7.04479 15.3889 6.79479 14.9278 6.71701 14.3833C6.63923 13.8389 6.74479 13.3222 7.03367 12.8333L7.56701 11.9C7.8559 11.4111 8.26145 11.0722 8.78367 10.8833C9.3059 10.6944 9.83367 10.6889 10.367 10.8667L12.2003 11.4667C12.667 11.0889 13.1448 10.7611 13.6337 10.4833C14.1226 10.2056 14.6448 9.95556 15.2003 9.73333L15.567 8C15.6781 7.4 15.9559 6.91667 16.4003 6.55C16.8448 6.18333 17.367 6 17.967 6H18.967C19.567 6 20.0948 6.18889 20.5503 6.56667C21.0059 6.94444 21.2892 7.43333 21.4003 8.03333L21.7337 9.73333C22.2892 9.95556 22.8115 10.2056 23.3003 10.4833C23.7892 10.7611 24.267 11.0889 24.7337 11.4667L26.6003 10.8667C27.1337 10.6889 27.6559 10.7 28.167 10.9C28.6781 11.1 29.0781 11.4333 29.367 11.9L29.9003 12.8C30.167 13.2889 30.267 13.8111 30.2003 14.3667C30.1337 14.9222 29.8892 15.3889 29.467 15.7667L28.0003 17.1333C28.0892 17.6889 28.1337 18.2444 28.1337 18.8C28.1337 19.3556 28.0892 19.9111 28.0003 20.4667L29.467 21.8333C29.8892 22.2111 30.1392 22.6722 30.217 23.2167C30.2948 23.7611 30.1892 24.2778 29.9003 24.7667L29.367 25.7C29.0781 26.1889 28.6726 26.5278 28.1503 26.7167C27.6281 26.9056 27.1003 26.9111 26.567 26.7333L24.7337 26.1333C24.267 26.5111 23.7892 26.8389 23.3003 27.1167C22.8115 27.3944 22.2892 27.6444 21.7337 27.8667L21.367 29.6C21.2559 30.2 20.9781 30.6833 20.5337 31.05C20.0892 31.4167 19.567 31.6 18.967 31.6H17.967C17.367 31.6 16.8392 31.4111 16.3837 31.0333C15.9281 30.6556 15.6448 30.1667 15.5337 29.5667L15.2003 27.8667ZM18.467 24.0667C19.9115 24.0667 21.1503 23.55 22.1837 22.5167C23.217 21.4833 23.7337 20.2444 23.7337 18.8C23.7337 17.3556 23.217 16.1167 22.1837 15.0833C21.1503 14.05 19.9115 13.5333 18.467 13.5333C17.0226 13.5333 15.7837 14.05 14.7503 15.0833C13.717 16.1167 13.2003 17.3556 13.2003 18.8C13.2003 20.2444 13.717 21.4833 14.7503 22.5167C15.7837 23.55 17.0226 24.0667 18.467 24.0667ZM38.5337 55.0667C37.7337 54.8222 36.9892 54.5056 36.3003 54.1167C35.6115 53.7278 34.9559 53.2667 34.3337 52.7333L31.9337 53.5333C31.1781 53.7778 30.4281 53.7611 29.6837 53.4833C28.9392 53.2056 28.367 52.7222 27.967 52.0333L27.267 50.8667C26.867 50.1778 26.7226 49.4333 26.8337 48.6333C26.9448 47.8333 27.3115 47.1667 27.9337 46.6333L29.867 44.9333C29.7115 44.1111 29.6337 43.2889 29.6337 42.4667C29.6337 41.6444 29.7115 40.8222 29.867 40L27.9337 38.2667C27.3337 37.7333 26.9726 37.0722 26.8503 36.2833C26.7281 35.4944 26.867 34.7556 27.267 34.0667L27.967 32.9C28.367 32.2111 28.9392 31.7278 29.6837 31.45C30.4281 31.1722 31.1781 31.1556 31.9337 31.4L34.3337 32.2C34.9559 31.6667 35.6115 31.2056 36.3003 30.8167C36.9892 30.4278 37.7337 30.1111 38.5337 29.8667L39.0003 27.4C39.1559 26.5778 39.5503 25.9056 40.1837 25.3833C40.817 24.8611 41.5559 24.6 42.4003 24.6H43.7337C44.5781 24.6 45.317 24.8611 45.9503 25.3833C46.5837 25.9056 46.9781 26.5778 47.1337 27.4L47.6003 29.8667C48.4003 30.1111 49.1448 30.4278 49.8337 30.8167C50.5226 31.2056 51.1781 31.6667 51.8003 32.2L54.2003 31.4C54.9559 31.1556 55.7059 31.1722 56.4503 31.45C57.1948 31.7278 57.767 32.2111 58.167 32.9L58.867 34.0667C59.267 34.7556 59.4115 35.5 59.3003 36.3C59.1892 37.1 58.8226 37.7667 58.2003 38.3L56.267 40C56.4226 40.8222 56.5003 41.6444 56.5003 42.4667C56.5003 43.2889 56.4226 44.1111 56.267 44.9333L58.2003 46.6667C58.8003 47.2 59.1615 47.8611 59.2837 48.65C59.4059 49.4389 59.267 50.1778 58.867 50.8667L58.167 52.0333C57.767 52.7222 57.1948 53.2056 56.4503 53.4833C55.7059 53.7611 54.9559 53.7778 54.2003 53.5333L51.8003 52.7333C51.1781 53.2667 50.5226 53.7278 49.8337 54.1167C49.1448 54.5056 48.4003 54.8222 47.6003 55.0667L47.1337 57.5333C46.9781 58.3556 46.5837 59.0278 45.9503 59.55C45.317 60.0722 44.5781 60.3333 43.7337 60.3333H42.4003C41.5559 60.3333 40.817 60.0722 40.1837 59.55C39.5503 59.0278 39.1559 58.3556 39.0003 57.5333L38.5337 55.0667ZM43.067 50.4C45.267 50.4 47.1392 49.6278 48.6837 48.0833C50.2281 46.5389 51.0003 44.6667 51.0003 42.4667C51.0003 40.2667 50.2281 38.3944 48.6837 36.85C47.1392 35.3056 45.267 34.5333 43.067 34.5333C40.867 34.5333 38.9948 35.3056 37.4503 36.85C35.9059 38.3944 35.1337 40.2667 35.1337 42.4667C35.1337 44.6667 35.9059 46.5389 37.4503 48.0833C38.9948 49.6278 40.867 50.4 43.067 50.4Z" fill="#B62D30"/>
</g>
</svg>
