<svg width="30" height="23" viewBox="0 0 30 23" fill="none" xmlns="http://www.w3.org/2000/svg">
<path d="M24.578 1.88102C22.6998 1.00228 20.6916 0.363644 18.5921 0C18.3342 0.466178 18.033 1.0932 17.8253 1.59199C15.5934 1.25635 13.3821 1.25635 11.1913 1.59199C10.9836 1.0932 10.6756 0.466178 10.4154 0C8.31361 0.363644 6.30309 1.00462 4.42494 1.88567C0.636677 7.61023 -0.390258 13.1926 0.123211 18.6957C2.63578 20.572 5.07077 21.7118 7.46466 22.4577C8.05572 21.6442 8.58287 20.7795 9.037 19.8681C8.1721 19.5395 7.34371 19.1339 6.56098 18.6631C6.76863 18.5092 6.97175 18.3484 7.16799 18.1829C11.9421 20.4159 17.1293 20.4159 21.8463 18.1829C22.0449 18.3484 22.248 18.5092 22.4534 18.6631C21.6683 19.1362 20.8377 19.5418 19.9728 19.8705C20.4269 20.7795 20.9518 21.6466 21.5451 22.46C23.9413 21.7141 26.3785 20.5744 28.8911 18.6957C29.4936 12.3162 27.8619 6.7851 24.578 1.88102ZM9.68741 15.3113C8.25427 15.3113 7.07898 13.9734 7.07898 12.3442C7.07898 10.7149 8.22917 9.37467 9.68741 9.37467C11.1457 9.37467 12.3209 10.7126 12.2958 12.3442C12.2981 13.9734 11.1457 15.3113 9.68741 15.3113ZM19.3269 15.3113C17.8938 15.3113 16.7185 13.9734 16.7185 12.3442C16.7185 10.7149 17.8687 9.37467 19.3269 9.37467C20.7852 9.37467 21.9605 10.7126 21.9354 12.3442C21.9354 13.9734 20.7852 15.3113 19.3269 15.3113Z" fill="white"/>
</svg>
