<svg width="64" height="64" viewBox="0 0 64 64" fill="none" xmlns="http://www.w3.org/2000/svg">
<mask id="mask0_61_86" style="mask-type:alpha" maskUnits="userSpaceOnUse" x="0" y="0" width="64" height="64">
<rect width="64" height="64" fill="#B62D30"/>
</mask>
<g mask="url(#mask0_61_86)">
<path d="M10.6666 40C8.4444 40 6.55552 39.2223 4.99996 37.6667C3.4444 36.1112 2.66663 34.2223 2.66663 32C2.66663 29.7778 3.4444 27.8889 4.99996 26.3334C6.55552 24.7778 8.4444 24 10.6666 24V18.6667C10.6666 17.2 11.1888 15.9445 12.2333 14.9C13.2777 13.8556 14.5333 13.3334 16 13.3334H24C24 11.1112 24.7777 9.22226 26.3333 7.66671C27.8888 6.11115 29.7777 5.33337 32 5.33337C34.2222 5.33337 36.1111 6.11115 37.6666 7.66671C39.2222 9.22226 40 11.1112 40 13.3334H48C49.4666 13.3334 50.7222 13.8556 51.7666 14.9C52.8111 15.9445 53.3333 17.2 53.3333 18.6667V24C55.5555 24 57.4444 24.7778 59 26.3334C60.5555 27.8889 61.3333 29.7778 61.3333 32C61.3333 34.2223 60.5555 36.1112 59 37.6667C57.4444 39.2223 55.5555 40 53.3333 40V50.6667C53.3333 52.1334 52.8111 53.3889 51.7666 54.4334C50.7222 55.4778 49.4666 56 48 56H16C14.5333 56 13.2777 55.4778 12.2333 54.4334C11.1888 53.3889 10.6666 52.1334 10.6666 50.6667V40ZM24 34.6667C25.1111 34.6667 26.0555 34.2778 26.8333 33.5C27.6111 32.7223 28 31.7778 28 30.6667C28 29.5556 27.6111 28.6112 26.8333 27.8334C26.0555 27.0556 25.1111 26.6667 24 26.6667C22.8888 26.6667 21.9444 27.0556 21.1666 27.8334C20.3888 28.6112 20 29.5556 20 30.6667C20 31.7778 20.3888 32.7223 21.1666 33.5C21.9444 34.2778 22.8888 34.6667 24 34.6667ZM40 34.6667C41.1111 34.6667 42.0555 34.2778 42.8333 33.5C43.6111 32.7223 44 31.7778 44 30.6667C44 29.5556 43.6111 28.6112 42.8333 27.8334C42.0555 27.0556 41.1111 26.6667 40 26.6667C38.8888 26.6667 37.9444 27.0556 37.1666 27.8334C36.3888 28.6112 36 29.5556 36 30.6667C36 31.7778 36.3888 32.7223 37.1666 33.5C37.9444 34.2778 38.8888 34.6667 40 34.6667ZM21.3333 45.3334H42.6666V40H21.3333V45.3334ZM16 50.6667H48V18.6667H16V50.6667Z" fill="#B62D30"/>
</g>
</svg>
