<svg width="64" height="64" viewBox="0 0 64 64" fill="none" xmlns="http://www.w3.org/2000/svg">
<mask id="mask0_61_95" style="mask-type:alpha" maskUnits="userSpaceOnUse" x="0" y="0" width="64" height="64">
<rect width="64" height="64" fill="#B62D30"/>
</mask>
<g mask="url(#mask0_61_95)">
<path d="M28 40H36L34.4666 31.4C35.3555 30.9556 36.0555 30.3112 36.5666 29.4667C37.0777 28.6223 37.3333 27.6889 37.3333 26.6667C37.3333 25.2 36.8111 23.9445 35.7666 22.9C34.7222 21.8556 33.4666 21.3334 32 21.3334C30.5333 21.3334 29.2777 21.8556 28.2333 22.9C27.1888 23.9445 26.6666 25.2 26.6666 26.6667C26.6666 27.6889 26.9222 28.6223 27.4333 29.4667C27.9444 30.3112 28.6444 30.9556 29.5333 31.4L28 40ZM32 58.6667C25.8222 57.1111 20.7222 53.5667 16.7 48.0334C12.6777 42.5 10.6666 36.3556 10.6666 29.6V13.3334L32 5.33337L53.3333 13.3334V29.6C53.3333 36.3556 51.3222 42.5 47.3 48.0334C43.2777 53.5667 38.1777 57.1111 32 58.6667ZM32 53.0667C36.6222 51.6 40.4444 48.6667 43.4666 44.2667C46.4888 39.8667 48 34.9778 48 29.6V17L32 11L16 17V29.6C16 34.9778 17.5111 39.8667 20.5333 44.2667C23.5555 48.6667 27.3777 51.6 32 53.0667Z" fill="#B62D30"/>
</g>
</svg>
