<svg width="64" height="64" viewBox="0 0 64 64" fill="none" xmlns="http://www.w3.org/2000/svg">
<mask id="mask0_61_83" style="mask-type:alpha" maskUnits="userSpaceOnUse" x="0" y="0" width="64" height="64">
<rect width="64" height="64" fill="#B62D30"/>
</mask>
<g mask="url(#mask0_61_83)">
<path d="M27.8666 41.3333C28.9333 42.4 30.3111 42.9222 32 42.9C33.6889 42.8777 34.9333 42.2666 35.7333 41.0666L50.6666 18.6666L28.2666 33.6C27.0666 34.4 26.4333 35.6222 26.3666 37.2666C26.3 38.9111 26.8 40.2666 27.8666 41.3333ZM32 10.6666C34.6222 10.6666 37.1444 11.0333 39.5666 11.7666C41.9889 12.5 44.2666 13.6 46.4 15.0666L41.3333 18.2666C39.8666 17.5111 38.3444 16.9444 36.7666 16.5666C35.1889 16.1888 33.6 16 32 16C26.0889 16 21.0555 18.0777 16.9 22.2333C12.7444 26.3888 10.6666 31.4222 10.6666 37.3333C10.6666 39.2 10.9222 41.0444 11.4333 42.8666C11.9444 44.6889 12.6666 46.4 13.6 48H50.4C51.4222 46.3111 52.1666 44.5555 52.6333 42.7333C53.1 40.9111 53.3333 39.0222 53.3333 37.0666C53.3333 35.4666 53.1444 33.9111 52.7666 32.4C52.3889 30.8889 51.8222 29.4222 51.0666 28L54.2666 22.9333C55.6 25.0222 56.6555 27.2444 57.4333 29.6C58.2111 31.9555 58.6222 34.4 58.6666 36.9333C58.7111 39.4666 58.4222 41.8888 57.8 44.2C57.1778 46.5111 56.2666 48.7111 55.0666 50.8C54.5777 51.6 53.9111 52.2222 53.0666 52.6666C52.2222 53.1111 51.3333 53.3333 50.4 53.3333H13.6C12.6666 53.3333 11.7778 53.1111 10.9333 52.6666C10.0889 52.2222 9.4222 51.6 8.93331 50.8C7.77776 48.8 6.88887 46.6777 6.26665 44.4333C5.64442 42.1889 5.33331 39.8222 5.33331 37.3333C5.33331 33.6444 6.03331 30.1888 7.43331 26.9666C8.83331 23.7444 10.7444 20.9222 13.1666 18.5C15.5889 16.0777 18.4222 14.1666 21.6666 12.7666C24.9111 11.3666 28.3555 10.6666 32 10.6666Z" fill="#B62D30"/>
</g>
</svg>









