<svg width="93" height="30" viewBox="0 0 93 30" fill="none" xmlns="http://www.w3.org/2000/svg">
<path d="M15.1689 17.3569C17.7519 19.8229 20.3279 22.2989 22.9349 24.7409C22.9449 22.3479 22.9369 19.9569 22.9399 17.5659C23.5849 17.5629 24.2329 17.5629 24.8809 17.5629C24.8859 21.4549 24.8769 25.3429 24.8859 29.2349C22.2529 26.7369 19.6699 24.1849 17.0579 21.6649C17.0459 24.1199 17.0579 26.5769 17.0529 29.0329C16.4239 29.0329 15.7979 29.0329 15.1719 29.0309C15.1689 25.1399 15.1739 21.2479 15.1689 17.3569ZM36.9649 18.3159C36.9549 19.0099 36.9549 19.7039 36.9579 20.3989C35.6479 19.4389 33.8459 18.6989 32.2679 19.4349C31.4889 19.8059 31.3879 20.9649 32.0879 21.4669C33.5259 22.3799 35.4359 22.4229 36.6769 23.6709C37.5069 24.4549 37.6449 25.7049 37.4309 26.7729C37.1839 27.8409 36.2509 28.6379 35.2249 28.9409C33.4289 29.4939 31.4089 29.1959 29.7919 28.2559C29.7969 27.5459 29.7999 26.8339 29.7919 26.1229C31.1589 27.1489 33.0159 27.8239 34.6959 27.2229C35.7099 26.9499 35.9119 25.3919 34.9939 24.8829C33.6369 24.0349 31.9109 23.9279 30.6639 22.8799C29.2479 21.6829 29.3409 19.1099 30.9429 18.1099C32.7559 16.9609 35.1729 17.2819 36.9649 18.3159ZM54.7029 17.6189C56.4829 17.5969 58.3199 18.5079 59.1889 20.0979C60.1229 21.7679 60.1839 23.8429 59.6009 25.6419C58.9799 27.5329 57.1309 28.8709 55.1589 28.9969C53.4429 29.0839 51.7239 29.0089 50.0059 29.0329C50.0059 25.2289 50.0029 21.4259 50.0079 17.6239C51.5709 17.6239 53.1379 17.6239 54.7029 17.6189ZM70.9429 17.6239L70.9399 19.3859C69.2599 19.3819 67.5829 19.3839 65.9059 19.3859V22.0519C67.4009 22.0539 68.8989 22.0539 70.3959 22.0539V23.7539C68.8989 23.7539 67.4009 23.7509 65.9059 23.7559V27.2709C67.5829 27.2759 69.2629 27.2709 70.9429 27.2729V29.0329C68.6149 29.0329 66.2889 29.0359 63.9629 29.0329V17.6239C66.2889 17.6219 68.6149 17.6239 70.9429 17.6239ZM81.3729 17.6309C82.7079 17.6649 84.1229 18.4349 84.5099 19.7849C84.8539 20.9569 84.7719 22.3479 84.0199 23.3499C83.5559 23.9479 82.8099 24.1759 82.1109 24.3679C83.4761 25.9094 84.8298 27.4611 86.1719 29.0229C85.4066 29.0372 84.6412 29.0382 83.8759 29.0259C82.5749 27.4799 81.2489 25.9559 79.9409 24.4189C79.5089 24.4209 79.0789 24.4209 78.6519 24.4209C78.6469 25.9579 78.6499 27.4939 78.6499 29.0309C77.9819 29.0329 77.3149 29.0329 76.6469 29.0329C76.6469 25.2289 76.6419 21.4259 76.6489 17.6219C78.2249 17.6359 79.7999 17.6069 81.3729 17.6319V17.6309ZM44.4229 17.6239V29.0339H42.4809C42.4809 25.2289 42.4779 21.4279 42.4809 17.6239H44.4229ZM9.64689 17.6239C9.65189 21.4259 9.64889 25.2289 9.64889 29.0339H7.70789C7.70789 25.2289 7.70589 21.4259 7.70789 17.6239H9.64689ZM52.0079 19.3839V27.2709C53.3989 27.2199 54.8969 27.4839 56.1909 26.8339C57.4339 26.1939 58.0039 24.7369 57.9679 23.3969C58.0179 22.0419 57.5409 20.5229 56.2929 19.8279C54.9839 19.0979 53.4329 19.4759 52.0079 19.3839ZM78.6519 19.3259C78.6482 20.4569 78.6482 21.5879 78.6519 22.7189C79.6889 22.6609 80.7719 22.8819 81.7759 22.5589C83.0159 22.0619 83.0429 20.0709 81.8219 19.5389C80.8119 19.1529 79.7029 19.3789 78.6519 19.3259ZM46.3779 0.0348871C49.0239 2.46189 51.5969 4.97189 54.1939 7.45289V0.206887H56.1359C56.1359 4.11289 56.1409 8.02089 56.1339 11.9269C53.4849 9.41189 50.9099 6.82189 48.2469 4.32189C48.2489 6.77289 48.2439 9.22189 48.2489 11.6719C47.6199 11.6769 46.9939 11.6769 46.3679 11.6789C46.3699 7.79789 46.3509 3.91589 46.3779 0.0348871ZM21.6639 0.204887C21.6559 2.59289 21.6879 4.98189 21.6489 7.37089C21.6319 8.91189 20.9819 10.5549 19.5689 11.3199C17.9719 12.1329 15.9469 12.1279 14.3809 11.2449C13.0489 10.4649 12.4029 8.86089 12.4369 7.36489C12.4439 4.97989 12.4389 2.59289 12.4419 0.206887H14.3839C14.3889 2.27289 14.3789 4.33689 14.3859 6.40189C14.4199 7.35189 14.4229 8.38189 14.9929 9.19389C15.7599 10.2499 17.3699 10.3489 18.4529 9.75389C19.4299 9.16389 19.6389 7.93389 19.6589 6.88289C19.6729 4.65889 19.6589 2.43289 19.6629 0.209886C20.3289 0.206886 20.9969 0.206887 21.6639 0.204887ZM33.3859 0.951886C33.3789 1.65189 33.3789 2.34789 33.3759 3.04489C32.1189 2.10789 30.4459 1.41789 28.8859 1.96489C28.2109 2.16589 27.7689 2.97689 28.0939 3.63189C28.3609 4.25889 29.0869 4.44089 29.6619 4.67389C30.8999 5.16589 32.3279 5.43089 33.2449 6.47689C34.4249 7.90189 34.1259 10.4389 32.3979 11.3049C30.4539 12.3129 28.0239 11.9919 26.1589 10.9439C26.1569 10.2249 26.1569 9.50889 26.1489 8.79089C27.5529 9.87089 29.4989 10.5109 31.2189 9.85389C32.1549 9.51389 32.2739 8.05789 31.4239 7.55289C30.1059 6.75389 28.4869 6.59089 27.2229 5.68589C26.1109 4.88689 25.7829 3.30189 26.2439 2.05389C26.5889 1.14889 27.4219 0.519887 28.3289 0.253887C30.0119 -0.246113 31.8889 0.056886 33.3859 0.951886ZM79.8959 0.896888C79.9299 1.60989 79.9299 2.32689 79.9279 3.03989C78.6309 2.06889 76.8859 1.37489 75.2939 2.00989C74.3899 2.33089 74.2859 3.69489 75.1069 4.16589C76.4439 4.93289 78.0769 5.08889 79.3269 6.03089C81.0069 7.28289 80.8839 10.3149 78.9639 11.2839C77.0189 12.3039 74.5649 12.0019 72.7059 10.9239C72.7029 10.2159 72.7029 9.50689 72.6939 8.79789C74.0479 9.76589 75.7719 10.4239 77.4419 9.97289C78.0579 9.81689 78.6239 9.26389 78.5369 8.58389C78.5489 8.06389 78.1849 7.60789 77.7279 7.39389C76.4179 6.71489 74.8709 6.52389 73.6819 5.60389C72.1309 4.40389 72.2319 1.64889 73.9629 0.655886C75.7829 -0.397114 78.1089 -0.0741138 79.8959 0.895886V0.896888ZM91.5699 0.893887C91.5769 1.59989 91.5769 2.30389 91.5819 3.01089C90.2979 2.03989 88.5449 1.38189 86.9739 2.02289C86.1009 2.36289 85.9989 3.68589 86.7999 4.16589C88.1689 4.96289 89.8729 5.08889 91.1249 6.10589C92.2029 6.95589 92.4189 8.53089 92.0019 9.77389C91.6109 10.8809 90.4969 11.5239 89.4019 11.7619C87.7219 12.1089 85.9279 11.7979 84.4349 10.9579C84.4109 10.2379 84.4109 9.51589 84.4089 8.79489C85.8209 9.84489 87.7459 10.5169 89.4629 9.85389C90.3969 9.51389 90.5399 8.08189 89.6979 7.56189C88.3439 6.71489 86.6349 6.59389 85.3629 5.58889C83.8669 4.38889 83.9379 1.70689 85.6149 0.694887C87.4209 -0.397113 89.7849 -0.105113 91.5699 0.893887ZM6.11789 0.548887C8.30489 1.25089 8.61589 4.67089 6.62089 5.78289C8.43889 6.53589 8.85589 9.11289 7.60889 10.5409C6.84189 11.4539 5.58889 11.6959 4.45489 11.7309C2.96989 11.7549 1.48689 11.7309 0.000888889 11.7379C0.000888889 7.89489 -0.00111111 4.04989 0.000888889 0.207887C2.03489 0.325887 4.14989 -0.0941129 6.11789 0.548887ZM68.2579 0.196887C68.2729 0.786887 68.2729 1.37689 68.2729 1.96689C66.5929 1.96689 64.9159 1.96489 63.2359 1.96889V4.69489C64.7339 4.69989 66.2289 4.69489 67.7269 4.69989V6.45789C66.2289 6.45989 64.7339 6.45789 63.2369 6.45789C63.2369 7.61089 63.2339 8.76589 63.2409 9.91889C64.9159 9.91189 66.5939 9.91889 68.2679 9.91489C68.2709 10.5209 68.2729 11.1309 68.2729 11.7379H61.2329C61.2359 7.89189 61.2289 4.04989 61.2359 0.204887C63.5789 0.204887 65.9179 0.216887 68.2579 0.196887ZM40.8429 0.206887V11.7369H38.9009V0.206887H40.8429ZM1.94489 6.70089C1.94125 7.79222 1.94125 8.88356 1.94489 9.97489C3.14189 9.88989 4.43089 10.2109 5.56489 9.70789C6.68889 9.15989 6.58689 7.28989 5.40889 6.86989C4.29289 6.51989 3.09589 6.77689 1.94489 6.70089ZM1.94489 1.96889C1.94246 2.97888 1.94246 3.98889 1.94489 4.99889C2.98889 4.94789 4.07189 5.14489 5.09089 4.85089C6.32189 4.49389 6.33089 2.46689 5.10789 2.09789C4.07689 1.83589 2.99689 2.01589 1.94489 1.96889Z" fill="#8A8C98"/>
</svg>
