<svg width="96" height="18" viewBox="0 0 96 18" fill="none" xmlns="http://www.w3.org/2000/svg">
<path d="M36.417 7.43036L36.418 4.96636C36.418 4.87836 36.433 4.79136 36.443 4.67636H46.156C46.156 5.41736 46.164 6.14636 46.148 6.87536C46.145 6.98536 46.038 7.10036 45.961 7.19836C44.289 9.34136 42.613 11.4814 40.94 13.6234C40.857 13.7284 40.783 13.8414 40.655 14.0234H41.142C42.723 14.0234 44.304 14.0294 45.885 14.0164C46.179 14.0144 46.289 14.0864 46.28 14.4034C46.259 15.1984 46.273 15.9934 46.273 16.8134H36.427C36.427 16.0194 36.42 15.2394 36.435 14.4594C36.436 14.3614 36.538 14.2594 36.607 14.1694C38.213 12.1054 39.822 10.0434 41.429 7.97936C41.552 7.82236 41.672 7.66236 41.849 7.42936L36.417 7.43036ZM31.128 7.42736H25.739V4.67236H35.482C35.482 5.19236 35.456 5.71436 35.49 6.23236C35.52 6.71136 35.376 7.08036 35.077 7.45536C33.457 9.49136 31.862 11.5474 30.259 13.5964C30.173 13.7064 30.091 13.8194 29.957 13.9984H35.547V16.8064H25.709C25.709 16.0394 25.699 15.2724 25.72 14.5064C25.724 14.3754 25.855 14.2384 25.947 14.1204C27.592 12.0054 29.24 9.89336 30.886 7.78036C30.955 7.69236 31.013 7.59536 31.128 7.42736ZM87.555 14.2294H89.306C91.36 14.2284 92.654 13.0594 92.884 10.9964C93.049 9.51636 92.255 8.04236 90.991 7.51936C89.878 7.05936 88.714 7.30336 87.555 7.23836V14.2294ZM84.521 16.8064V5.09136C84.521 4.59836 84.522 4.59336 85.026 4.59836C86.772 4.61436 88.525 4.53936 90.262 4.67536C92.736 4.86836 94.673 5.99336 95.59 8.45936C96.522 10.9654 95.811 13.8244 93.918 15.3914C92.803 16.3144 91.49 16.7684 90.076 16.8204C88.281 16.8854 86.482 16.8404 84.684 16.8424C84.648 16.8424 84.611 16.8264 84.521 16.8064ZM48.173 16.8124V0.0213643H59.743V1.65036C59.743 2.01036 59.719 2.37336 59.749 2.73036C59.779 3.08736 59.639 3.15636 59.313 3.15436C57.03 3.14136 54.747 3.14736 52.464 3.14736H51.742V6.68336H52.173C53.895 6.68336 55.617 6.69336 57.339 6.67536C57.687 6.67136 57.769 6.78336 57.76 7.11536C57.739 7.99936 57.753 8.88536 57.753 9.81436H51.716V16.8124H48.173ZM18.139 17.1604C17.756 17.0804 17.37 17.0124 16.99 16.9204C14.637 16.3554 13.247 14.5774 13.245 12.1334C13.243 9.79037 13.245 7.44736 13.245 5.10436V4.68436H16.425V5.13236C16.425 7.34636 16.432 9.56036 16.423 11.7744C16.418 12.7784 16.723 13.6294 17.665 14.0664C18.687 14.5394 19.734 14.5224 20.679 13.8434C21.371 13.3454 21.567 12.5834 21.569 11.7654C21.572 9.56437 21.569 7.36236 21.569 5.16136V4.67736H24.716V12.0624C24.714 14.8584 22.99 16.7804 20.227 17.0744C20.091 17.0884 19.957 17.1304 19.822 17.1604H18.139ZM74.788 9.54636H80.646C80.721 8.08036 79.327 6.91637 77.576 6.95037C76.021 6.98037 74.676 8.22136 74.788 9.54636ZM77.375 17.1604C76.855 17.0544 76.326 16.9804 75.816 16.8384C73.381 16.1604 71.701 14.0814 71.48 11.5404C71.272 9.14436 71.96 7.11336 73.866 5.60036C76.754 3.31036 82.429 3.83036 83.556 9.25036C83.638 9.63936 83.686 10.0374 83.709 10.4344C83.735 10.8544 83.715 11.2784 83.715 11.7654H74.767C74.844 12.4434 75.105 12.9874 75.537 13.4384C76.527 14.4694 77.762 14.6634 79.097 14.4274C79.947 14.2774 80.733 13.9504 81.439 13.3394L82.879 15.4714C82.505 15.7244 82.165 15.9924 81.792 16.1984C80.864 16.7104 79.86 16.9814 78.808 17.0804C78.686 17.0924 78.567 17.1334 78.446 17.1604H77.375ZM67.709 9.54836C67.772 8.03636 66.344 6.88136 64.537 6.95336C63.033 7.01336 61.697 8.29836 61.857 9.54836H67.709ZM64.441 17.1604C64.018 17.0804 63.591 17.0204 63.174 16.9194C59.906 16.1294 58.241 13.2894 58.527 10.1534C58.767 7.52636 60.077 5.60636 62.577 4.71736C66.064 3.47636 70.109 5.15136 70.707 9.83736C70.785 10.4554 70.781 11.0854 70.819 11.7654H61.811C62.019 12.9194 62.596 13.7294 63.601 14.1594C65.235 14.8594 66.766 14.5104 68.209 13.5734C68.294 13.5174 68.373 13.4524 68.456 13.3924C68.464 13.3864 68.48 13.3924 68.538 13.3924L69.948 15.4864C69.483 15.7784 69.054 16.0964 68.586 16.3334C67.725 16.7704 66.799 17.0024 65.836 17.0834C65.726 17.0924 65.62 17.1334 65.512 17.1604H64.441ZM3.569 6.68336C4.613 6.68336 5.604 6.68536 6.595 6.68136C6.785 6.68136 6.981 6.68236 7.166 6.64536C7.866 6.50336 8.393 6.14136 8.576 5.40536C8.869 4.23037 8.127 3.21536 6.924 3.15536C6.364 3.12836 5.803 3.14836 5.242 3.14736H3.593C3.583 3.26936 3.57 3.34336 3.57 3.41736C3.568 4.48436 3.569 5.55036 3.569 6.68336ZM3.593 13.6364C3.64 13.6524 3.686 13.6824 3.732 13.6824C4.852 13.6844 5.974 13.7244 7.091 13.6704C8.247 13.6154 8.935 12.8984 8.965 11.8404C8.996 10.7784 8.361 10.0124 7.229 9.87536C6.513 9.78836 5.782 9.82837 5.058 9.81837C4.578 9.81137 4.098 9.81736 3.593 9.81736V13.6364ZM0 0.0103646C2.703 0.0133646 5.406 -0.0276358 8.108 0.0353642C10.19 0.0833642 11.821 1.51136 12.173 3.46136C12.57 5.66836 11.435 7.55336 9.685 8.05936C9.64 8.07236 9.605 8.11336 9.545 8.15536C11.213 8.63736 12.209 9.75236 12.489 11.4224C12.952 14.1784 11.446 16.4424 8.601 16.7624C7.971 16.8344 7.33 16.8324 6.693 16.8354C4.463 16.8474 2.231 16.8474 0 16.8514V0.0103646Z" fill="#8A8C98"/>
</svg>
