<svg width="81" height="22" viewBox="0 0 81 22" fill="none" xmlns="http://www.w3.org/2000/svg">
<path d="M28.524 20.806C28.471 20.772 28.454 20.638 28.466 20.356L28.483 19.953L28.685 19.909C28.796 19.885 29.035 19.839 29.215 19.804C29.775 19.699 30.095 19.392 30.276 18.793C30.423 18.304 30.488 16.742 30.492 13.603C30.496 9.76501 30.417 8.85901 30.032 8.34501C29.824 8.06601 29.673 7.98701 29.168 7.88901C28.918 7.84101 28.656 7.78901 28.584 7.77401C28.469 7.75001 28.454 7.71201 28.454 7.42601C28.454 7.14901 28.472 7.09801 28.584 7.05201C28.757 6.98001 34.474 5.82701 34.656 5.82701H34.799L34.771 6.68601C34.756 7.15801 34.731 7.84601 34.716 8.21501L34.69 8.88501L34.897 8.50801C35.56 7.30101 36.303 6.55201 37.292 6.09401C37.835 5.84401 38.197 5.76801 38.867 5.76801C39.663 5.76801 40.457 6.03001 40.457 6.29201C40.457 6.46801 39.057 10.205 38.979 10.235C38.942 10.25 38.669 10.145 38.371 10.001C37.753 9.70101 37.172 9.55401 36.609 9.55601C35.907 9.55701 35.123 9.81801 34.814 10.153C34.681 10.296 34.681 10.305 34.648 12.445C34.615 14.565 34.685 17.15 34.803 18.19C34.903 19.076 35.137 19.512 35.619 19.715C35.779 19.783 36.796 19.923 37.127 19.924C37.153 19.924 37.166 20.127 37.157 20.375L37.139 20.827L32.869 20.84C30.52 20.848 28.565 20.833 28.524 20.806ZM0.0769997 20.817C0.0289997 20.797 0.00499916 20.652 0.00499916 20.384C0.00499916 19.901 -0.0249999 19.923 0.899 19.749C1.609 19.616 1.862 19.481 2.176 19.066C2.783 18.262 2.914 16.714 2.916 10.341C2.916 4.35601 2.803 3.09701 2.174 2.17101C1.896 1.76101 1.426 1.53901 0.639 1.44401L0.0330009 1.37001L0.0170002 0.893006L0 0.414005L0.190001 0.380005C0.294001 0.361005 3.963 0.353007 8.342 0.363007L16.304 0.379006L16.341 0.612005C16.361 0.740005 16.395 2.05501 16.416 3.53301L16.454 6.22101L16.044 6.34701C15.425 6.53701 15.429 6.53901 15.151 5.79701C14.468 3.97301 13.685 2.92201 12.614 2.39101C11.874 2.02501 11.534 1.98101 9.446 1.98101H7.63L7.599 2.28701C7.54 2.86001 7.448 6.54901 7.449 8.28701V10.02L7.983 10.017C8.276 10.015 8.855 9.99301 9.269 9.96801C9.892 9.93101 10.076 9.89801 10.337 9.77601C10.977 9.47601 11.412 8.819 11.678 7.748L11.816 7.19501L12.287 7.17801L12.758 7.16101V14.161L12.287 14.143L11.816 14.127L11.682 13.573C11.431 12.533 10.947 11.789 10.349 11.523C10.073 11.399 9.39 11.329 8.069 11.288L7.449 11.269V12.584C7.449 14.017 7.527 15.955 7.627 17.007C7.767 18.474 8.137 19.284 8.804 19.577C8.932 19.633 9.334 19.724 9.699 19.779C10.064 19.835 10.409 19.903 10.464 19.932C10.604 20.006 10.614 20.765 10.474 20.819C10.364 20.862 0.181 20.86 0.0769997 20.817ZM72.861 21.167C71.832 21.056 70.196 20.694 69.651 20.457L69.385 20.342L69.349 19.012C69.329 18.28 69.306 17.302 69.298 16.837L69.283 15.993L69.443 15.916C69.53 15.873 69.707 15.834 69.836 15.828L70.07 15.817L70.27 16.312C71.047 18.244 71.958 19.285 73.15 19.602C73.604 19.722 74.456 19.724 74.792 19.604C75.734 19.268 76.251 18.548 76.255 17.564C76.261 16.399 75.626 15.84 73.229 14.894C71.745 14.309 71.227 14.008 70.609 13.371C69.945 12.683 69.625 11.901 69.565 10.811C69.493 9.49401 69.901 8.38401 70.806 7.43801C71.716 6.48601 72.899 5.97001 74.509 5.82201C75.927 5.69101 78.103 5.99501 79.243 6.48201L79.451 6.571L79.488 7.75701C79.508 8.40901 79.53 9.28401 79.535 9.70001L79.545 10.458L79.265 10.562C78.825 10.728 78.795 10.707 78.549 10.05C77.861 8.208 77.06 7.33601 75.813 7.07001C75.053 6.90801 74.419 7.08201 73.957 7.58001C73.597 7.96801 73.457 8.31301 73.423 8.89301C73.386 9.52001 73.497 9.85901 73.877 10.279C74.345 10.796 75.112 11.243 76.64 11.887C78.512 12.677 79.405 13.347 79.89 14.327C80.206 14.963 80.295 15.471 80.263 16.449C80.24 17.183 80.216 17.334 80.051 17.827C79.511 19.433 78.294 20.491 76.413 20.987C75.776 21.155 75.685 21.163 74.419 21.177C73.689 21.186 72.987 21.181 72.861 21.167ZM63.131 11.616L64.135 11.58L64.099 10.86C63.971 8.32201 63.356 6.93501 62.358 6.93601C61.273 6.93601 60.406 8.34501 60.046 10.691C60.001 10.979 59.964 11.321 59.964 11.451L59.963 11.686L61.045 11.668C61.64 11.658 62.579 11.635 63.131 11.616ZM61.319 21.111C58.456 20.589 56.409 18.54 55.739 15.526C55.654 15.138 55.616 14.705 55.594 13.866C55.56 12.538 55.667 11.714 56.006 10.69C56.658 8.72401 57.826 7.33001 59.523 6.49601C61.313 5.61401 63.762 5.55601 65.347 6.35801C67.131 7.26101 68.181 9.06301 68.447 11.681C68.483 12.033 68.504 12.453 68.494 12.613L68.474 12.904L64.204 12.919L59.934 12.934L59.95 13.444C59.988 14.624 60.24 15.667 60.704 16.574C60.915 16.986 61.084 17.211 61.492 17.628C62.415 18.568 63.333 18.932 64.782 18.932C65.832 18.932 66.587 18.721 67.377 18.206C67.597 18.061 67.822 17.943 67.875 17.943C67.995 17.943 68.273 18.303 68.273 18.46C68.273 18.717 67.445 19.545 66.637 20.096C65.976 20.546 64.927 20.955 64.017 21.116C63.38 21.228 61.949 21.226 61.319 21.111ZM47.041 19.981C47.461 19.901 47.786 19.732 48.135 19.415C49.012 18.62 49.671 16.978 49.93 14.943C50.036 14.114 50.021 12.226 49.904 11.535C49.588 9.66501 48.908 8.43501 47.916 7.94001C47.504 7.73401 47.441 7.72001 46.953 7.72001C46.603 7.72001 46.303 7.75801 46.048 7.83301L45.666 7.94701L45.638 10.077C45.602 12.803 45.69 19.631 45.763 19.827C45.81 19.952 45.863 19.979 46.096 19.997C46.646 20.041 46.736 20.039 47.041 19.981ZM44.728 21.14C43.7447 21.0114 42.7663 20.847 41.795 20.647L41.372 20.55L41.405 18.27C41.485 12.784 41.495 9.78801 41.443 6.87501C41.393 4.02101 41.378 3.72001 41.269 3.29801C41.131 2.76301 40.932 2.39001 40.692 2.21801C40.599 2.15001 40.346 2.05501 40.129 2.00601C39.411 1.84401 39.449 1.87001 39.431 1.53901C39.42 1.34901 39.441 1.22201 39.488 1.18401C39.553 1.13201 45.447 -0.00299406 45.634 5.93655e-06C45.688 0.00100594 45.696 0.762005 45.668 3.38001C45.648 5.23801 45.646 6.75901 45.663 6.75901C45.679 6.75901 45.895 6.66501 46.141 6.54901C46.885 6.20301 47.571 6.05201 48.566 6.01701C49.228 5.99401 49.536 6.00801 49.876 6.07901C52.098 6.54401 53.744 8.38101 54.318 11.04C54.468 11.734 54.524 13.458 54.425 14.322C54.3218 15.132 54.1273 15.9278 53.845 16.694C52.895 19.122 50.855 20.707 48.149 21.119C47.525 21.213 45.568 21.226 44.728 21.14ZM22.038 20.01C22.446 19.887 22.95 19.41 23.219 18.89C23.774 17.82 24.022 16.235 24.028 13.72C24.036 10.567 23.546 8.56101 22.513 7.51101C22.079 7.07101 21.771 6.93301 21.216 6.93401C19.985 6.93601 19.204 8.23401 18.895 10.789C18.753 11.963 18.752 14.761 18.893 15.788C19.331 18.965 20.46 20.482 22.037 20.009L22.038 20.01ZM19.944 21.14C18.544 20.935 17.321 20.337 16.386 19.402C15.606 18.622 15.101 17.766 14.728 16.591C14.147 14.757 14.146 12.4 14.728 10.603C15.291 8.86301 16.56 7.34701 18.113 6.56001C20.263 5.47001 23.289 5.54001 25.281 6.72201C27.073 7.78701 28.158 9.67901 28.461 12.264C28.553 13.054 28.493 14.721 28.348 15.409C27.753 18.226 26.022 20.193 23.485 20.935C23.212 21.015 22.788 21.108 22.543 21.143C22.025 21.215 20.446 21.213 19.944 21.14Z" fill="#8A8C98"/>
</svg>
