<svg width="116" height="14" viewBox="0 0 116 14" fill="none" xmlns="http://www.w3.org/2000/svg">
<mask id="mask0_47_30" style="mask-type:luminance" maskUnits="userSpaceOnUse" x="0" y="0" width="116" height="14">
<path d="M0 0H116V13.564H0V0Z" fill="white"/>
</mask>
<g mask="url(#mask0_47_30)">
<path d="M14.997 13.29H19.234L21.505 0.290001H17.27L16.432 4.945H12.759L13.597 0.290001H9.36L7.089 13.29H11.326L12.179 8.425H15.852L14.997 13.29ZM23.905 0.274L22.617 7.507C22.51 8.04272 22.456 8.58769 22.456 9.134C22.456 12.968 25.806 13.548 27.82 13.548C32.04 13.548 33.86 12.146 34.521 8.36L35.939 0.257999H31.702L30.494 7.056C30.107 9.182 29.834 10.294 28.254 10.294C27.224 10.294 26.724 9.746 26.724 8.618C26.724 8.183 26.789 7.652 26.918 6.991L28.142 0.257999H23.905V0.274ZM58.33 13.29H62.567L63.163 9.94H65.16C68.85 9.94 70.895 7.942 70.895 4.301C70.895 1.74 69.123 0.274 66.014 0.274H60.601L58.33 13.29ZM64.935 6.734H63.71L64.274 3.673H65.418C66.352 3.673 66.852 4.14 66.852 4.993C66.852 6.073 66.127 6.734 64.935 6.734ZM79.126 0C74.519 0 71.765 2.98 71.765 7.99C71.765 11.47 73.955 13.564 77.628 13.564C82.235 13.564 84.99 10.584 84.99 5.574C85.006 2.078 82.815 0 79.126 0ZM77.886 10.197C76.791 10.197 76.146 9.407 76.146 8.087C76.146 7.587 76.195 7.152 76.291 6.653C76.613 4.945 77.161 3.383 78.885 3.383C79.98 3.383 80.625 4.173 80.625 5.493C80.625 5.993 80.576 6.427 80.48 6.927C80.157 8.618 79.61 10.197 77.886 10.197ZM99.73 13.29H103.967L105.642 3.77H108.831L109.444 0.290001H98.602L97.99 3.77H101.373L99.73 13.29ZM92.706 5.09C91.369 4.672 90.822 4.494 90.822 3.866C90.822 3.447 91.095 2.948 91.901 2.948C92.497 2.948 92.996 3.286 93.19 3.786L96.927 2.771C96.492 0.934 94.913 0 92.191 0C87.068 0 86.666 3.431 86.666 4.478C86.666 6.605 87.793 7.909 90.242 8.586C90.886 8.763 91.627 8.956 91.627 9.666C91.627 10.229 91.208 10.584 90.483 10.584C89.823 10.584 89.114 10.197 88.873 9.52L85.183 10.52C85.586 12.452 87.407 13.548 90.258 13.548C92.433 13.548 96.073 12.968 96.073 9.038C96.089 7.072 94.978 5.783 92.706 5.09ZM4.72 13.29L7.007 0.290001H0V13.29H4.72ZM111.264 0.290001L108.993 13.29H116V0.290001H111.264ZM40.997 9.456H44.557L45.137 6.186H41.577L41.98 3.77H46.958L47.57 0.274H38.355L36.084 13.29H40.321L40.997 9.456ZM52.096 9.456H55.672L56.252 6.186H52.692L53.095 3.77H58.072L58.684 0.274H49.47L47.2 13.29H51.436L52.096 9.456Z" fill="#8A8C97"/>
</g>
</svg>
