<svg width="100" height="53" viewBox="0 0 100 53" fill="none" xmlns="http://www.w3.org/2000/svg">
<path fill-rule="evenodd" clip-rule="evenodd" d="M63.9049 5.88864C63.4683 5.88864 63.0495 6.06209 62.7408 6.37082C62.432 6.67956 62.2586 7.0983 62.2586 7.53492C62.2586 8.1079 62.5392 8.61034 62.9829 8.90539L57.4 20.8874L58.5662 4.93188C58.9896 4.89601 59.3827 4.69799 59.6635 4.37915C59.9443 4.06032 60.091 3.64533 60.0731 3.22086C60.0551 2.7964 59.8739 2.39527 59.5672 2.10126C59.2605 1.80725 58.8521 1.64309 58.4273 1.64307C57.9906 1.64307 57.5719 1.81651 57.2632 2.12525C56.9544 2.43399 56.781 2.85272 56.781 3.28934C56.781 4.00504 57.2375 4.60209 57.8762 4.82925L54.0449 20.4079L52.1495 3.22253C52.4977 3.13117 52.8057 2.92685 53.0253 2.64159C53.2449 2.35632 53.3636 2.00626 53.3628 1.64627C53.3628 1.20965 53.1894 0.790919 52.8807 0.482183C52.5719 0.173446 52.1532 0 51.7166 0C51.2799 0 50.8612 0.173446 50.5525 0.482183C50.2437 0.790919 50.0703 1.20965 50.0703 1.64627C50.0703 2.46781 50.6764 3.13059 51.4637 3.25406L49.9361 19.9969L45.4965 4.87789C45.7623 4.73998 45.9851 4.53169 46.1405 4.27577C46.296 4.01985 46.3781 3.72614 46.3779 3.42671C46.3779 3.10111 46.2814 2.78282 46.1005 2.51209C45.9196 2.24136 45.6625 2.03035 45.3617 1.90575C45.0608 1.78115 44.7298 1.74855 44.4105 1.81207C44.0911 1.87559 43.7978 2.03238 43.5676 2.26262C43.3373 2.49285 43.1805 2.78619 43.117 3.10554C43.0535 3.42488 43.0861 3.7559 43.2107 4.05671C43.3353 4.35753 43.5463 4.61464 43.817 4.79554C44.0878 4.97643 44.406 5.07298 44.7317 5.07298C44.7552 5.07298 44.7808 5.07085 44.8038 5.06978L46.7173 20.8879L40.2696 9.37842C40.5879 9.12878 40.8032 8.77065 40.8743 8.37239C40.9455 7.97414 40.8674 7.56364 40.6552 7.21923C40.4429 6.87483 40.1113 6.62064 39.7236 6.50518C39.3358 6.38972 38.9192 6.42107 38.5531 6.59324C38.187 6.76541 37.8971 7.06636 37.7388 7.43864C37.5804 7.81092 37.5647 8.22848 37.6946 8.61161C37.8245 8.99474 38.0909 9.31663 38.4431 9.51584C38.7952 9.71505 39.2083 9.77763 39.6036 9.69164L45.0053 25.8855C46.2379 29.6517 57.1931 29.7201 58.8362 25.8855L63.7146 9.16034C63.7825 9.1689 63.8338 9.18066 63.9038 9.18066C64.3352 9.17302 64.7464 8.99632 65.0488 8.68858C65.3513 8.38084 65.5208 7.96666 65.521 7.53517C65.5211 7.10369 65.3518 6.6894 65.0496 6.38146C64.7473 6.07352 64.3363 5.89655 63.9049 5.88864ZM51.7855 27.6173C48.9938 27.6173 46.7307 26.776 46.7307 25.738C46.7307 24.7 48.9938 24.2125 51.7855 24.2125C54.5772 24.2125 56.5437 24.7 56.5437 25.738C56.5437 26.776 54.5767 27.6173 51.7855 27.6173ZM59.7213 37.2619H61.351C62.3398 37.2619 62.6862 37.4848 62.6862 38.3497V49.0034C62.6862 49.8442 62.3398 50.1654 61.351 50.1654H59.7213V51.8876H76.3808V44.8145H74.8056C74.8056 48.3016 73.4244 50.1355 71.0993 50.1355H66.4245V44.4681H67.3423C68.8507 44.4681 69.7123 45.1368 69.7123 46.372V47.3619H71.5194V39.4962H69.7123V40.3621C69.7123 41.5759 68.802 42.3157 67.3423 42.3157H66.4245V37.2619H70.7781C73.9696 37.2619 74.6324 39.0996 74.8056 41.8453H76.3808V35.3901H59.7213V37.2619ZM52.3927 50.1355H48.4449V38.4245C48.4449 37.5591 48.7912 37.2625 49.7806 37.2625H51.2644V35.4318H42.0532V37.2625H43.3398C44.3292 37.2625 44.6755 37.5591 44.6755 38.4245V49.0034C44.6755 49.8442 44.3292 50.166 43.3398 50.166H42.0532V51.9298H57.6651V44.683H55.8852C55.8349 47.5266 55.8547 50.1355 52.3927 50.1355ZM30.37 34.9288C24.6808 34.9288 21.1391 39.316 21.1194 43.4435C21.0937 48.7859 24.6316 52.1495 30.1969 52.1495C36.1079 52.1495 39.5464 48.8356 39.5464 43.1709C39.5464 38.9734 35.8359 34.9288 30.37 34.9288ZM30.246 50.2034C27.2779 50.2034 25.5713 47.549 25.5713 43.3195C25.5713 39.1888 27.3522 37.0562 30.3946 37.0562C33.313 37.0562 35.0197 39.2385 35.0197 43.4927C35.0202 47.6479 33.289 50.2034 30.246 50.2034ZM98.2666 37.2619H99.9995V35.4088H91.6248V37.2619H92.72C93.1316 37.325 93.4047 37.7467 92.9948 38.1578L90.667 40.8282L88.8182 38.5683C88.4066 38.0894 88.4755 37.2668 89.2287 37.2668L90.0742 37.2614V35.4083H80.5317V37.2614C82.9284 37.3298 83.5271 37.6094 84.3925 38.7222L88.2698 43.4296L82.9969 48.9756C82.0572 50.0393 81.9674 50.1344 80.5323 50.1344V51.9052H88.886V50.1344H86.887C86.2942 50.1344 86.1697 49.7041 86.1697 49.3834C86.1697 49.0617 86.5903 48.6907 86.7635 48.4678L89.7076 45.1363L92.6527 48.6415C92.8008 48.8393 93.0472 49.0622 93.0472 49.3097C93.0472 49.6314 92.7756 50.135 92.2069 50.135H90.551V51.9058H100V50.135C98.5071 50.135 98.3735 50.0644 97.034 48.4288L92.1043 42.6086L95.4594 38.9793C96.6951 37.6687 97.1789 37.2619 98.2666 37.2619ZM17.1907 47.1663V48.0135C17.1907 49.0275 16.5985 49.5465 16.1041 49.5465C15.3125 49.5465 15.2633 48.5822 15.2136 48.0135V47.3288C15.2136 45.0689 14.1868 44.1784 12.8858 43.4937C15.3098 42.9256 16.9182 41.4776 16.9182 39.4737C16.9182 36.8766 15.1372 35.3922 11.9718 35.3922H0V37.2625H1.62115C2.61052 37.2625 2.95688 37.4912 2.95688 38.3566V48.9735C2.95688 49.8142 2.61052 50.1355 1.62115 50.1355H0V51.8897H9.32497V50.1355H8.03842C7.04905 50.1355 6.70269 49.8142 6.70269 48.9735V44.2468H8.36607C10.147 44.2468 11.4518 45.2426 11.5507 47.1225L11.6992 49.2931C11.7981 51.2718 13.1339 52.335 15.4835 52.335C17.9818 52.335 18.5687 51.1233 18.5687 48.5507V47.1658H17.1907V47.1663ZM9.59917 42.0997H6.70483V37.248H9.27687C11.7506 37.248 12.6405 38.0685 12.6405 39.6758C12.641 41.3327 11.6768 42.0997 9.59917 42.0997Z" fill="#8A8C97"/>
</svg>
