<svg width="78" height="23" viewBox="0 0 78 23" fill="none" xmlns="http://www.w3.org/2000/svg">
<path d="M70.896 8.673L68.811 12.257H64.028L68.318 5.869L64.249 0H69.116L71.016 3.22L72.828 0H77.576L73.574 5.817L78 12.257H73.066L70.896 8.673ZM50.736 17.079H47.888V5.8H50.243C55.143 5.8 55.575 9.865 55.575 11.312C55.575 13.467 54.958 17.08 50.736 17.08V17.079ZM52.431 0H41.226V22.928H51.106C58.779 22.928 62.353 18.451 62.353 11.407C62.353 5.618 59.765 0 52.431 0ZM20.604 23H39.648V16.884H27.877V14.559L39.647 14.569V8.479H27.877V6.142L39.647 6.134V0.000999451H20.605L20.604 23ZM0 6.128H5.843V22.93H13.168V6.13H19.026V0H0V6.128Z" fill="#8A8C98"/>
</svg>
