<svg width="98" height="21" viewBox="0 0 98 21" fill="none" xmlns="http://www.w3.org/2000/svg">
<path d="M0 20.189V0H19.573V20.189H0ZM1.441 3.169C2.315 7.273 3.098 11.399 3.939 15.511C4.093 16.003 3.998 16.653 4.471 16.983C5.324 17.121 6.2 17.087 7.061 17.027C7.529 17.042 7.641 16.486 7.727 16.129C8.315 13.201 8.954 10.284 9.539 7.357C9.585 7.086 9.669 6.822 9.795 6.579C10.525 9.72 11.127 12.889 11.805 16.04C11.898 16.375 11.917 16.789 12.244 16.993C13.1794 17.1122 14.1262 17.1098 15.061 16.986C15.395 16.786 15.412 16.375 15.498 16.036C16.358 11.749 17.161 7.446 18.071 3.169C17.249 3.174 16.429 3.171 15.61 3.171C14.956 6.901 14.432 10.656 13.71 14.373C12.898 11.219 12.354 7.989 11.646 4.806C11.486 4.262 11.559 3.469 10.968 3.193C10.2454 3.14749 9.52062 3.14749 8.798 3.193C8.388 3.228 8.295 3.718 8.215 4.043C7.561 7.199 6.875 10.348 6.237 13.504C6.16787 13.7947 6.07626 14.0795 5.963 14.356C5.30358 10.6352 4.6892 6.90663 4.12 3.171C3.227 3.169 2.334 3.174 1.441 3.169ZM24.539 3.036C27.693 3.028 30.844 3.028 33.995 3.036C34.007 3.86 34.007 4.688 33.998 5.515C32.883 5.522 31.768 5.517 30.654 5.517C30.659 8.567 30.659 11.621 30.654 14.671C31.768 14.671 32.883 14.666 34 14.676C34.005 15.501 34.007 16.328 33.995 17.153C30.844 17.16 27.693 17.16 24.541 17.153C24.5294 16.3264 24.5287 15.4996 24.539 14.673C25.654 14.666 26.769 14.671 27.883 14.671C27.878 11.621 27.878 8.568 27.883 5.517C26.768 5.517 25.653 5.522 24.539 5.515C24.529 4.688 24.529 3.864 24.539 3.036ZM38.963 20.189V0H58.537V20.189H38.963ZM43.385 3.171V17.018H46.098V11.6C47.568 11.605 49.039 11.593 50.51 11.603C51.046 11.551 51.685 11.937 51.673 12.533C51.741 14.03 51.868 15.523 51.961 17.017C52.822 17.017 53.681 17.017 54.541 17.019C54.298 15.325 54.598 13.575 54.124 11.915C53.88 11.046 52.929 10.852 52.188 10.635C52.739 10.34 53.446 10.312 53.846 9.771C54.426 9.027 54.468 8.035 54.471 7.129C54.461 6.07 54.485 4.906 53.82 4.017C53.288 3.278 52.293 3.17 51.459 3.17C48.769 3.168 46.076 3.171 43.385 3.171ZM46.098 5.446C47.839 5.473 49.583 5.392 51.32 5.483C51.99 5.963 51.856 6.928 51.883 7.654C51.849 8.314 51.837 9.371 50.966 9.422C49.346 9.506 47.72 9.435 46.098 9.457V5.446ZM62.034 3.038C65.898 3.026 69.761 3.026 73.627 3.038C73.632 4.57 73.627 6.101 73.629 7.632H71.119C71.117 6.926 71.117 6.222 71.122 5.517C69.61 5.52 68.1 5.52 66.588 5.517C66.583 6.577 66.585 7.635 66.585 8.693H70.244V11.05H66.585C66.59 12.258 66.573 13.47 66.598 14.679C68.148 14.661 69.7 14.674 71.251 14.671C71.249 13.866 71.249 13.061 71.251 12.256C72.102 12.246 72.954 12.246 73.805 12.254C73.805 13.886 73.817 15.518 73.798 17.151C69.876 17.163 65.956 17.163 62.034 17.151C62.022 16.326 62.024 15.501 62.032 14.676C62.653 14.6692 63.274 14.6685 63.895 14.674C63.907 11.621 63.907 8.568 63.895 5.515C63.273 5.52128 62.6509 5.51895 62.029 5.508C62.0232 4.68467 62.0248 3.8613 62.034 3.038ZM77.988 20.188V0H97.805V20.189L77.988 20.188ZM82.41 3.171V17.018C84.69 17.013 86.968 17.028 89.249 17.01C90.654 16.983 92.29 16.72 93.137 15.45C94.124 13.854 93.976 11.901 94.149 10.102C93.973 8.3 94.129 6.34 93.137 4.739C92.349 3.55 90.841 3.238 89.517 3.189C87.149 3.149 84.778 3.181 82.41 3.171ZM85.122 5.446C86.592 5.453 88.063 5.436 89.534 5.451C90.19 5.444 90.939 5.766 91.146 6.446C91.607 7.776 91.412 9.218 91.463 10.602C91.424 11.707 91.539 12.874 91.073 13.91C90.761 14.58 89.953 14.757 89.288 14.745C87.898 14.745 86.51 14.74 85.122 14.743V5.446Z" fill="#8A8C98"/>
</svg>
